<?xml version="1.0" encoding="UTF-8"?>
<svg xmlns="http://www.w3.org/2000/svg" viewBox="0 0 600 160" width="600" height="160">
  <defs>
    <linearGradient id="bg" x1="0" y1="0" x2="1" y2="1">
      <stop offset="0" stop-color="#5E35B1"/>
      <stop offset="1" stop-color="#7C3AED"/>
    </linearGradient>
  </defs>

  <!-- Icon -->
  <rect x="8" y="8" width="144" height="144" rx="28" ry="28" fill="url(#bg)"/>
  <g transform="translate(28,28) scale(4)" fill="#FFFFFF">
    <path d="M9,11.24V7.5C9,6.12 10.12,5 11.5,5S14,6.12 14,7.5V11.24C15.21,10.43 16,9.05 16,7.5C16,5.01 13.99,3 11.5,3S7,5.01 7,7.5C7,9.05 7.79,10.43 9,11.24M18.84,15.87L14.54,13.76C14.38,13.71 14.21,13.68 14.03,13.68H13.31V7.5C13.31,6.5 12.5,5.69 11.5,5.69C10.5,5.69 9.69,6.5 9.69,7.5V18.5L9.31,18.4L7.04,16.85C6.45,16.55 5.74,16.78 5.45,17.36C5.14,17.96 5.36,18.69 5.94,18.99L11.06,21.71C11.26,21.83 11.5,21.91 11.74,21.92H17.69C18.45,21.92 19.07,21.31 19.07,20.55C19.07,20.4 19.05,20.25 19.01,20.11L19.83,17.13C19.94,16.7 19.71,16.06 18.84,15.87Z"/>
  </g>

  <!-- Wordmark -->
  <text x="180" y="92" font-family="-apple-system, Segoe UI, Roboto, sans-serif"
        font-weight="700" font-size="56" fill="#1F1147">FingerTheGame</text>
  <text x="182" y="124" font-family="ui-monospace, SFMono-Regular, Menlo, monospace"
        font-size="18" fill="#6B5BA8">poke any save · NRBF · SQLite · text · binary</text>
</svg>
